STARTFONT 2.1
COMMENT
COMMENT Converted from OpenType font "Q:\font stuff\winfont\MicroTechnicExtOutline.otf" by "otf2bdf 3.0".
COMMENT
FONT -FreeType-Micro TechnicExtOutline-Medium-R-Normal--36-360-72-72-P-266-ISO10646-1
SIZE 36 72 72
FONTBOUNDINGBOX 64 48 -4 -9
STARTPROPERTIES 19
FOUNDRY "FreeType"
FAMILY_NAME "Micro TechnicExtOutline"
WEIGHT_NAME "Medium"
SLANT "R"
SETWIDTH_NAME "Normal"
ADD_STYLE_NAME ""
PIXEL_SIZE 36
POINT_SIZE 360
RESOLUTION_X 72
RESOLUTION_Y 72
SPACING "P"
AVERAGE_WIDTH 266
CHARSET_REGISTRY "ISO10646"
CHARSET_ENCODING "1"
FONT_ASCENT 38
FONT_DESCENT 8
COPYRIGHT "Copyright Copr.1992 Image Club Graphics, Inc."
_OTF_FONTFILE "Q:\font stuff\winfont\MicroTechnicExtOutline.otf"
_OTF_PSNAME "MicroTechnicExtOutline"
ENDPROPERTIES
CHARS 203
STARTCHAR 0020
ENCODING 32
SWIDTH 277 0
DWIDTH 10 0
BBX 0 0 0 0
BITMAP
ENDCHAR
STARTCHAR 0021
ENCODING 33
SWIDTH 222 0
DWIDTH 8 0
BBX 5 28 1 0
BITMAP
F8
88
88
88
88
88
88
88
88
88
88
88
88
88
88
88
88
88
88
88
F8
00
F8
88
88
88
88
F8
ENDCHAR
STARTCHAR 0022
ENCODING 34
SWIDTH 333 0
DWIDTH 12 0
BBX 10 10 1 18
BITMAP
F3C0
9240
9240
9240
9240
9240
9240
9240
9240
F3C0
ENDCHAR
STARTCHAR 0023
ENCODING 35
SWIDTH 805 0
DWIDTH 29 0
BBX 26 28 2 0
BITMAP
00F07C00
01104800
01104800
01204800
01208800
01208800
01208800
3E1F8FC0
40000040
40000040
7E3F8FC0
02209000
02411000
04411000
04411000
04411000
04411000
7C7F1F80
80000080
80000080
FC7F1F80
08412000
08822000
08822000
08822000
08822000
08822000
0F83E000
ENDCHAR
STARTCHAR 0024
ENCODING 36
SWIDTH 1027 0
DWIDTH 37 0
BBX 33 35 1 -3
BITMAP
0001C00000
0001400000
0001400000
0001400000
07FF7FF000
1800000E00
2000000300
4FFF7FF100
4801400880
9001400480
9001400480
9001400480
9001400780
9001400000
8801400000
4C01400000
43FF7FFC00
2000000200
1800000100
07FF7FE100
0001401880
0001400C80
F001400480
9001400480
9001400480
9001400480
9001400C80
8C01401900
83FF7FE100
4000000200
3800000400
07FF7FF800
0001400000
0001400000
0001C00000
ENDCHAR
STARTCHAR 0025
ENCODING 37
SWIDTH 1444 0
DWIDTH 52 0
BBX 49 28 1 0
BITMAP
0FFE01C0000000
30018240000000
47FE4240000000
48014240000000
9000A240000000
9000A280000000
9000A280000000
9000A280000000
9000A280000000
9000A2807FF000
9000A281800E00
9000A282000200
9000A2827FF100
9800A284C00900
4C012284800480
43FE4284800480
30018284800480
0FFE0284800480
00000284800480
00000284800480
00000284800480
00000284800480
00000284800480
00000284600880
000004821FF100
00000482000100
00000481000200
00000380FFFC00
ENDCHAR
STARTCHAR 0026
ENCODING 38
SWIDTH 1111 0
DWIDTH 40 0
BBX 37 28 1 0
BITMAP
007FFFE000
0380001800
0600000400
047FFF8400
0880004200
0900002200
0900002200
0900002200
0900003E00
0880000000
0860000000
0418000000
0806000000
3001800000
41E0600F00
4618180900
8806060900
8801818900
8800606900
8800181900
8800060100
8800010100
840000C0C0
4300004030
60FFFF8308
3000000488
0C00001850
03FFFFE030
ENDCHAR
STARTCHAR 0027
ENCODING 39
SWIDTH 194 0
DWIDTH 7 0
BBX 4 10 1 18
BITMAP
F0
90
90
90
90
90
90
90
90
F0
ENDCHAR
STARTCHAR 0028
ENCODING 40
SWIDTH 388 0
DWIDTH 14 0
BBX 11 28 1 0
BITMAP
0FE0
3020
6020
43E0
C400
8800
8800
8800
8800
8800
8800
8800
8800
8800
8800
8800
8800
8800
8800
8800
8800
8800
8800
4400
43E0
2020
1020
0FE0
ENDCHAR
STARTCHAR 0029
ENCODING 41
SWIDTH 388 0
DWIDTH 14 0
BBX 11 28 1 0
BITMAP
FE00
8180
80C0
FC40
0260
0120
0120
0120
0120
0120
0120
0120
0120
0120
0120
0120
0120
0120
0120
0120
0120
0120
0120
0220
FC40
8040
8080
FF00
ENDCHAR
STARTCHAR 002A
ENCODING 42
SWIDTH 583 0
DWIDTH 21 0
BBX 18 14 1 13
BITMAP
040800
1C1400
0A2400
0A2800
055000
02E000
FE3FC0
FE3FC0
02E000
055000
0A2800
0A1400
141400
0C0800
ENDCHAR
STARTCHAR 002B
ENCODING 43
SWIDTH 527 0
DWIDTH 19 0
BBX 16 16 1 0
BITMAP
03C0
0240
0240
0240
0240
0240
FE7F
8001
8001
FE7F
0240
0240
0240
0240
0240
03C0
ENDCHAR
STARTCHAR 002C
ENCODING 44
SWIDTH 250 0
DWIDTH 9 0
BBX 6 11 1 -6
BITMAP
FC
84
84
84
84
E4
24
C4
84
88
F0
ENDCHAR
STARTCHAR 002D
ENCODING 45
SWIDTH 472 0
DWIDTH 17 0
BBX 15 4 1 11
BITMAP
FFFE
8002
8002
FFFE
ENDCHAR
STARTCHAR 002E
ENCODING 46
SWIDTH 222 0
DWIDTH 8 0
BBX 6 6 1 0
BITMAP
FC
84
84
84
84
FC
ENDCHAR
STARTCHAR 002F
ENCODING 47
SWIDTH 694 0
DWIDTH 25 0
BBX 21 28 2 0
BITMAP
000038
000050
000090
0000A0
000140
000240
000280
000500
000900
000A00
001400
002400
002800
005000
009000
012000
014000
024000
048000
050000
090000
120000
140000
240000
480000
500000
900000
E00000
ENDCHAR
STARTCHAR 0030
ENCODING 48
SWIDTH 972 0
DWIDTH 35 0
BBX 32 28 1 0
BITMAP
01FFFF80
0E000070
30000008
60FFFF84
42000062
44000012
C4000011
88000009
88000009
88000009
88000009
88000009
88000009
88000009
88000009
88000009
88000009
88000009
88000009
88000009
88000009
84000019
44000012
43000062
20FFFFC6
1000000C
08000018
07FFFFE0
ENDCHAR
STARTCHAR 0031
ENCODING 49
SWIDTH 527 0
DWIDTH 19 0
BBX 17 28 1 0
BITMAP
001F80
006080
008080
010880
021880
046880
088880
310880
420880
840880
980880
600880
000880
000880
000880
000880
000880
000880
000880
000880
000880
000880
000880
000880
000880
000880
000880
000F80
ENDCHAR
STARTCHAR 0032
ENCODING 50
SWIDTH 972 0
DWIDTH 35 0
BBX 31 29 1 0
BITMAP
01FFFF80
0E000070
30000008
60FFFF04
460000C6
84000022
88000012
88000012
88000012
88000012
88000012
F8000012
00000012
00000022
00001FC4
003FE004
07E00008
18000030
600000C0
41FFFF00
86000000
84000000
88000000
88000000
88000000
8FFFFFFE
80000002
80000002
FFFFFFFE
ENDCHAR
STARTCHAR 0033
ENCODING 51
SWIDTH 944 0
DWIDTH 34 0
BBX 31 29 1 0
BITMAP
07FFFFC0
38000038
6000000C
43FFFF84
84000042
88000022
88000022
88000022
88000022
F8000022
00000022
00000022
00000044
001FFF84
00100018
00100018
001FFFC4
00000062
00000022
F8000022
88000022
88000022
88000022
88000022
840000C2
43FFFF04
20000004
18000018
07FFFFE0
ENDCHAR
STARTCHAR 0034
ENCODING 52
SWIDTH 972 0
DWIDTH 35 0
BBX 32 28 1 0
BITMAP
00001FE0
00003020
00004020
00018220
00030E20
00041220
00182220
0030C220
00410220
01820220
02040220
04180220
18200220
20C00220
41000220
82000220
8C000220
88000220
8FFFFE3F
80000001
80000001
FFFFFE3F
00000220
00000220
00000220
00000220
00000220
000003E0
ENDCHAR
STARTCHAR 0035
ENCODING 53
SWIDTH 944 0
DWIDTH 34 0
BBX 31 28 1 0
BITMAP
FFFFFFFC
80000004
80000004
8FFFFFFC
88000000
88000000
88000000
88000000
887FFF80
8B800070
8C000018
8800000C
87FFFF84
8C0000E6
F8000022
00000012
00000012
00000012
00000012
F8000012
88000012
88000012
88000012
86000064
41FFFF84
40000008
30000030
0FFFFFC0
ENDCHAR
STARTCHAR 0036
ENCODING 54
SWIDTH 944 0
DWIDTH 34 0
BBX 30 29 1 0
BITMAP
01FFFF80
0E0000E0
10000010
20000008
61FFFFC8
46000024
44000024
88000024
88000024
8800003C
88000000
88000000
90FFFFC0
970000F0
8C000018
88FFFF0C
870001C4
84000064
88000024
88000024
88000024
88000024
88000024
4C000044
470000C8
21FFFF08
20000010
18000060
07FFFF80
ENDCHAR
STARTCHAR 0037
ENCODING 55
SWIDTH 916 0
DWIDTH 33 0
BBX 31 28 1 0
BITMAP
FFFFFFFE
80000002
80000002
FFFFFFF2
00000022
00000042
00000086
00000104
00000208
00000610
00000420
00000840
00001080
00002100
00004100
00008200
00018400
00010800
00021000
00042000
00084000
00108000
00210000
00210000
00420000
00840000
01080000
03F00000
ENDCHAR
STARTCHAR 0038
ENCODING 56
SWIDTH 944 0
DWIDTH 34 0
BBX 31 28 1 0
BITMAP
07FFFFC0
30000038
6000000C
43FFFF84
84000042
88000022
88000022
88000022
88000022
88000022
8C000022
44000044
63FFFF84
18000018
10000018
61FFFF04
460000C2
8C000062
88000022
88000022
88000022
88000022
88000022
84000042
43FFFF84
60000004
10000018
0FFFFFE0
ENDCHAR
STARTCHAR 0039
ENCODING 57
SWIDTH 944 0
DWIDTH 34 0
BBX 31 29 1 0
BITMAP
01FFFF00
060000E0
18000018
2000000C
41FFFF84
460000E2
8C000032
88000012
88000012
88000012
88000012
88000012
88000012
C4000022
43FFFFC2
20000032
1C0000D2
03FFFF12
00000012
00000012
F8000012
88000012
88000012
88000032
840000E2
43FFFF84
20000008
10000030
0FFFFFC0
ENDCHAR
STARTCHAR 003A
ENCODING 58
SWIDTH 222 0
DWIDTH 8 0
BBX 6 20 1 0
BITMAP
FC
84
84
84
84
FC
00
00
00
00
00
00
00
00
FC
84
84
84
84
FC
ENDCHAR
STARTCHAR 003B
ENCODING 59
SWIDTH 250 0
DWIDTH 9 0
BBX 6 25 1 -6
BITMAP
FC
84
84
84
84
FC
00
00
00
00
00
00
00
00
FC
84
84
84
84
C4
24
C4
88
88
F0
ENDCHAR
STARTCHAR 003C
ENCODING 60
SWIDTH 638 0
DWIDTH 23 0
BBX 20 23 1 1
BITMAP
000010
0000F0
000310
000C10
003060
01C180
060600
181800
60E000
830000
8C0000
840000
830000
60C000
183000
060C00
018300
0060C0
001030
000C10
000310
0000D0
000030
ENDCHAR
STARTCHAR 003D
ENCODING 61
SWIDTH 555 0
DWIDTH 20 0
BBX 18 10 1 5
BITMAP
FFFFC0
800040
FFFFC0
000000
000000
000000
FFFFC0
800040
800040
FFFFC0
ENDCHAR
STARTCHAR 003E
ENCODING 62
SWIDTH 638 0
DWIDTH 23 0
BBX 20 23 1 -1
BITMAP
800000
E00000
9C0000
830000
C0C000
303000
0E0E00
018180
006060
001C10
000310
000210
000C10
003060
00C180
030200
040C00
183000
60C000
830000
8C0000
B00000
C00000
ENDCHAR
STARTCHAR 003F
ENCODING 63
SWIDTH 805 0
DWIDTH 29 0
BBX 26 29 1 0
BITMAP
07FFF800
38000600
40000100
43FFF880
8C000CC0
88000240
90000240
90000240
90000240
90000240
F0000240
00000240
00000480
00007880
000F8100
00100600
00207800
00438000
00440000
00440000
007C0000
00000000
00000000
00000000
007C0000
00440000
00440000
00440000
007C0000
ENDCHAR
STARTCHAR 0040
ENCODING 64
SWIDTH 777 0
DWIDTH 28 0
BBX 25 28 1 -1
BITMAP
003F8000
01C0E000
023F1800
0DC0EC00
1A001E00
1C000E00
28000500
30000300
607CF280
61972180
A2232180
C4422180
C4422180
C8424180
C8824180
C8844300
C8844300
E8848200
64888600
768A8C00
335D9B80
28F0E300
14000500
1B001A00
0DC06400
037F9800
01C06000
003F8000
ENDCHAR
STARTCHAR 0041
ENCODING 65
SWIDTH 1111 0
DWIDTH 40 0
BBX 37 28 1 0
BITMAP
0001F80000
0002040000
0002040000
0004620000
0004A10000
0008910000
0009108000
0011088000
0022044000
0022044000
0044022000
0044021000
0088011000
0090010800
0110008800
0220004400
0220004400
0440002200
047FFFE100
0800000100
0800000080
11FFFFF880
2100000440
2200000440
4200000220
4400000110
8800000110
F8000000F8
ENDCHAR
STARTCHAR 0042
ENCODING 66
SWIDTH 972 0
DWIDTH 35 0
BBX 32 28 1 0
BITMAP
FFFFFFE0
80000018
8000000C
8FFFFFC4
88000042
88000022
88000022
88000022
88000022
88000022
88000042
8FFFFF84
80000018
80000008
80000006
8FFFFFE2
88000011
88000009
88000009
88000009
88000009
88000009
88000019
88000031
8FFFFFE2
80000004
80000018
FFFFFFE0
ENDCHAR
STARTCHAR 0043
ENCODING 67
SWIDTH 972 0
DWIDTH 35 0
BBX 32 29 1 0
BITMAP
01FFFFC0
0E000038
1000000C
20000002
40FFFFC2
43000031
44000009
C4000009
88000009
88000009
8800000F
88000000
88000000
88000000
88000000
88000000
88000000
88000000
88000000
8800000F
88000009
88000009
44000009
44000009
43000009
20FFFFF2
30000002
0800000C
07FFFFF0
ENDCHAR
STARTCHAR 0044
ENCODING 68
SWIDTH 1027 0
DWIDTH 37 0
BBX 34 28 1 0
BITMAP
FFFFFFE000
8000001C00
8000000600
8FFFFFC300
8800003180
8800001880
8800000880
8800000440
8800000440
8800000440
8800000440
8800000440
8800000440
8800000440
8800000440
8800000440
8800000440
8800000440
8800000440
8800000440
8800000440
8800000840
8800000880
8800003080
8FFFFFC100
8000000200
8000000C00
FFFFFFF000
ENDCHAR
STARTCHAR 0045
ENCODING 69
SWIDTH 861 0
DWIDTH 31 0
BBX 27 28 1 0
BITMAP
FFFFFFE0
80000020
80000020
8FFFFFE0
88000000
88000000
88000000
88000000
88000000
88000000
88000000
8FFFFFE0
80000020
80000020
80000020
8FFFFFE0
88000000
88000000
88000000
88000000
88000000
88000000
88000000
88000000
8FFFFFE0
80000020
80000020
FFFFFFE0
ENDCHAR
STARTCHAR 0046
ENCODING 70
SWIDTH 805 0
DWIDTH 29 0
BBX 26 28 1 0
BITMAP
FFFFFFC0
80000040
80000040
8FFFFFC0
88000000
88000000
88000000
88000000
88000000
88000000
88000000
88000000
8FFFFFC0
80000040
80000040
8FFFFFC0
88000000
88000000
88000000
88000000
88000000
88000000
88000000
88000000
88000000
88000000
88000000
F8000000
ENDCHAR
STARTCHAR 0047
ENCODING 71
SWIDTH 1000 0
DWIDTH 36 0
BBX 33 29 1 0
BITMAP
01FFFFC000
0E00007800
3000000C00
2000000200
41FFFF8100
420000E100
8400001080
8400000880
8800000880
8800000880
8800000F80
8800000000
8800000000
8800000000
8801FFFF80
8801000080
8801000080
8801000080
8801FFF880
8800000880
8800000880
8800000880
8800000880
4400001880
4300003100
20FFFFE200
2000000400
1800001800
07FFFFE000
ENDCHAR
STARTCHAR 0048
ENCODING 72
SWIDTH 1000 0
DWIDTH 36 0
BBX 33 28 1 0
BITMAP
F800000780
8800000480
8800000480
8800000480
8800000480
8800000480
8800000480
8800000480
8800000480
8800000480
8800000480
8FFFFFFC80
8000000080
8000000080
8000000080
8FFFFFFC80
8800000480
8800000480
8800000480
8800000480
8800000480
8800000480
8800000480
8800000480
8800000480
8800000480
8800000480
F800000780
ENDCHAR
STARTCHAR 0049
ENCODING 73
SWIDTH 222 0
DWIDTH 8 0
BBX 5 28 1 0
BITMAP
F8
88
88
88
88
88
88
88
88
88
88
88
88
88
88
88
88
88
88
88
88
88
88
88
88
88
88
F8
ENDCHAR
STARTCHAR 004A
ENCODING 74
SWIDTH 777 0
DWIDTH 28 0
BBX 27 28 0 0
BITMAP
000001E0
00000120
00000120
00000120
00000120
00000120
00000120
00000120
00000120
00000120
00000120
00000120
00000120
00000120
00000120
00000120
00000120
F8000120
88000120
88000120
88000120
88000120
84000120
86000220
41FFFC40
200000C0
10000100
0FFFFE00
ENDCHAR
STARTCHAR 004B
ENCODING 75
SWIDTH 1000 0
DWIDTH 36 0
BBX 34 28 1 0
BITMAP
F800003F80
880000C100
8800030600
8800041800
8800182000
880020C000
8800C10000
8803060000
8806080000
8818300000
8820C00000
8FC1000000
8006000000
8004000000
8FC2000000
8821800000
8818400000
8804300000
8803080000
8800860000
8800410000
880030C000
8800082000
8800041800
8800030400
8800008200
8800004180
F800003FC0
ENDCHAR
STARTCHAR 004C
ENCODING 76
SWIDTH 777 0
DWIDTH 28 0
BBX 26 28 1 0
BITMAP
F8000000
88000000
88000000
88000000
88000000
88000000
88000000
88000000
88000000
88000000
88000000
88000000
88000000
88000000
88000000
88000000
88000000
88000000
88000000
88000000
88000000
88000000
88000000
88000000
8FFFFFC0
80000040
80000040
FFFFFFC0
ENDCHAR
STARTCHAR 004D
ENCODING 77
SWIDTH 1305 0
DWIDTH 47 0
BBX 44 28 1 0
BITMAP
FF0000000FF0
808000001010
808000002010
884000002110
884000004310
8C2000004510
8A1000008910
8A1000010910
890800011110
888400021110
888400022110
884200044110
882200084110
882100088110
881080110110
880880110110
880440220110
880420420110
880220440110
880110880110
880110880110
880089100110
880046200110
880042200110
880020400110
880010400110
880010800110
F8000F0001F0
ENDCHAR
STARTCHAR 004E
ENCODING 78
SWIDTH 1027 0
DWIDTH 37 0
BBX 34 28 1 0
BITMAP
FE000007C0
8100000440
8080000440
8040000440
8820000440
8C10000440
8A08000440
8904000440
8882000440
8841000440
8820800440
8810800440
8808400440
8804200440
8802100440
8801080440
8800840440
8800420440
8800210440
8800108440
8800084440
8800042440
8800021440
8800011440
8800008C40
8800004040
8800002040
F800001FC0
ENDCHAR
STARTCHAR 004F
ENCODING 79
SWIDTH 1055 0
DWIDTH 38 0
BBX 35 29 1 0
BITMAP
01FFFFF800
0E00000700
3000000080
60000000C0
40FFFFF040
4300000C60
8400000420
8400000220
8800000220
8800000220
8800000220
8800000220
8800000220
8800000220
8800000220
8800000220
8800000220
8800000220
8800000220
8800000220
8800000220
8800000220
8800000220
8400000440
4400000C40
43FFFFF040
2000000080
1800000300
07FFFFFC00
ENDCHAR
STARTCHAR 0050
ENCODING 80
SWIDTH 944 0
DWIDTH 34 0
BBX 31 28 1 0
BITMAP
FFFFFFE0
80000038
8000000C
8FFFFF84
880000C2
88000062
88000022
88000022
88000022
88000022
88000022
88000062
880000C2
8FFFFF04
80000008
80000030
8FFFFFC0
88000000
88000000
88000000
88000000
88000000
88000000
88000000
88000000
88000000
88000000
F8000000
ENDCHAR
STARTCHAR 0051
ENCODING 81
SWIDTH 1138 0
DWIDTH 41 0
BBX 38 29 1 0
BITMAP
03FFFFFC00
0C00000300
10000000C0
2000000040
40FFFFF820
4300000620
4400000220
8400000110
8800000110
8800000110
8800000110
8800000110
8800000110
8800000110
8800000110
8800060110
8800090110
880008C110
8800042110
8800021110
8800018D10
8800006310
8C00001010
C400000C10
4300000218
60FFFFFF64
3000000094
1C00000308
03FFFFFC00
ENDCHAR
STARTCHAR 0052
ENCODING 82
SWIDTH 944 0
DWIDTH 34 0
BBX 31 28 1 0
BITMAP
FFFFFFE0
80000018
80000008
8FFFFFC4
88000064
88000032
88000012
88000012
88000012
88000012
88000012
88000012
88000022
8FFFFFC2
80000004
80000008
8FFFFFD0
88000028
88000014
88000012
88000012
88000012
88000012
88000012
88000012
88000012
88000012
F800001E
ENDCHAR
STARTCHAR 0053
ENCODING 83
SWIDTH 944 0
DWIDTH 34 0
BBX 30 29 1 0
BITMAP
03FFFF00
1C0000E0
30000010
60000008
43FFFE08
8C000384
880000C4
90000044
90000044
9000007C
90000000
98000000
4C000000
43FFFF80
20000060
1C000010
07FFFF08
000000C4
00000044
00000024
F0000024
90000024
90000024
90000044
8C0001C4
43FFFE08
60000010
18000060
07FFFF80
ENDCHAR
STARTCHAR 0054
ENCODING 84
SWIDTH 916 0
DWIDTH 33 0
BBX 32 28 0 0
BITMAP
FFFFFFFF
80000001
80000001
FFFE3FFF
00022000
00022000
00022000
00022000
00022000
00022000
00022000
00022000
00022000
00022000
00022000
00022000
00022000
00022000
00022000
00022000
00022000
00022000
00022000
00022000
00022000
00022000
00022000
0003E000
ENDCHAR
STARTCHAR 0055
ENCODING 85
SWIDTH 972 0
DWIDTH 35 0
BBX 32 28 1 0
BITMAP
F800000F
88000009
88000009
88000009
88000009
88000009
88000009
88000009
88000009
88000009
88000009
88000009
88000009
88000009
88000009
88000009
88000009
88000009
88000009
88000009
88000009
88000009
8C000019
87000071
40FFFF82
60000002
1000000C
0FFFFFF0
ENDCHAR
STARTCHAR 0056
ENCODING 86
SWIDTH 1055 0
DWIDTH 38 0
BBX 35 28 1 0
BITMAP
F0000003E0
8800000220
8800000440
4400000480
4400000880
2200000900
2100001100
1100001200
0880002200
0880004400
0440004400
0440008800
0220008800
0220011000
0110011000
0108022000
0088024000
0044044000
0044048000
0022088000
0022090000
0011110000
0011120000
0008A20000
0008640000
0004440000
0002080000
0003F80000
ENDCHAR
STARTCHAR 0057
ENCODING 87
SWIDTH 1694 0
DWIDTH 61 0
BBX 58 28 1 0
BITMAP
F000003E000007C0
8800004200000480
8800004100000880
4400008100000900
4400008880001100
4400010880001100
2200011440002200
2200022440002200
1100022420004400
1100022220004400
0880044220008800
0880044110008800
0440088110011000
0440088088011000
0420110088022000
0220110084022000
0210210044044000
0110220044044000
0108220022084000
0088440022088000
0088440011088000
0044880011110000
0044880010910000
0023100008A20000
0021100008A20000
0020100004440000
0010200004040000
000FE00003F80000
ENDCHAR
STARTCHAR 0058
ENCODING 88
SWIDTH 1083 0
DWIDTH 39 0
BBX 37 28 1 0
BITMAP
7E000007E0
4100000C40
2080001880
1040002100
0820004200
0610008400
0108010800
0084021000
0042042000
0021084000
0010908000
0008610000
0004020000
0002040000
0002020000
000C210000
0010D08000
0021084000
0042042000
0084021000
0108010800
0210008400
0420006200
0840001100
10C0000880
2180000440
4100000230
FE000001F8
ENDCHAR
STARTCHAR 0059
ENCODING 89
SWIDTH 1027 0
DWIDTH 37 0
BBX 35 28 1 0
BITMAP
FC000007E0
8600000840
4300000880
3180001100
08C0002200
0460004400
0220008800
0110011000
0088021000
0044042000
0022084000
0011108000
0008A10000
0004620000
0002040000
0001080000
0000900000
0000900000
0000900000
0000900000
0000900000
0000900000
0000900000
0000900000
0000900000
0000900000
0000900000
0000F00000
ENDCHAR
STARTCHAR 005A
ENCODING 90
SWIDTH 916 0
DWIDTH 33 0
BBX 31 28 1 0
BITMAP
FFFFFFFC
80000004
80000004
FFFFFF04
00000608
00000810
00001060
000020C0
00004100
00008200
00010400
00020800
00041000
00082000
00104000
00218000
00420000
00840000
01080000
02100000
04200000
08400000
11800000
62000000
C3FFFFFE
80000002
80000002
FFFFFFFE
ENDCHAR
STARTCHAR 005B
ENCODING 91
SWIDTH 361 0
DWIDTH 13 0
BBX 11 28 1 0
BITMAP
FFE0
8020
8020
9FE0
9000
9000
9000
9000
9000
9000
9000
9000
9000
9000
9000
9000
9000
9000
9000
9000
9000
9000
9000
9000
9FE0
8020
8020
FFE0
ENDCHAR
STARTCHAR 005C
ENCODING 92
SWIDTH 666 0
DWIDTH 24 0
BBX 22 28 0 0
BITMAP
F00000
500000
480000
240000
140000
120000
090000
050000
048000
024000
012000
012000
009000
004800
004800
002400
001200
000A00
000900
000480
000280
000240
000120
0000A0
000090
000048
000028
00001C
ENDCHAR
STARTCHAR 005D
ENCODING 93
SWIDTH 361 0
DWIDTH 13 0
BBX 11 28 1 0
BITMAP
FFE0
8020
8020
FE20
0220
0220
0220
0220
0220
0220
0220
0220
0220
0220
0220
0220
0220
0220
0220
0220
0220
0220
0220
0220
FE20
8020
8020
FFE0
ENDCHAR
STARTCHAR 005E
ENCODING 94
SWIDTH 361 0
DWIDTH 13 0
BBX 11 5 1 23
BITMAP
3F80
4080
8440
8A40
F1E0
ENDCHAR
STARTCHAR 005F
ENCODING 95
SWIDTH 694 0
DWIDTH 25 0
BBX 25 2 0 -4
BITMAP
FFFFFF80
FFFFFF80
ENDCHAR
STARTCHAR 0060
ENCODING 96
SWIDTH 250 0
DWIDTH 9 0
BBX 7 7 1 21
BITMAP
F8
88
44
24
24
12
0E
ENDCHAR
STARTCHAR 0061
ENCODING 97
SWIDTH 1111 0
DWIDTH 40 0
BBX 37 28 1 0
BITMAP
0001F80000
0002040000
0002040000
0004620000
0004A10000
0008910000
0009108000
0011088000
0022044000
0022044000
0044022000
0044021000
0088011000
0088008800
0110008800
0210004400
0220004400
0440002200
047FFFE100
0800000100
0800000080
1000000080
21FFFFFC40
2200000440
4200000220
4400000110
8800000110
F8000000F8
ENDCHAR
STARTCHAR 0062
ENCODING 98
SWIDTH 972 0
DWIDTH 35 0
BBX 32 28 1 0
BITMAP
FFFFFFE0
80000018
80000004
80000004
8FFFFFC2
88000022
88000022
88000022
88000022
88000022
88000022
88000044
87FFFF88
80000018
80000006
8FFFFFE2
88000011
88000011
88000011
88000011
88000011
88000011
88000011
88000021
8FFFFFC2
80000004
80000008
FFFFFFF0
ENDCHAR
STARTCHAR 0063
ENCODING 99
SWIDTH 972 0
DWIDTH 35 0
BBX 32 29 1 0
BITMAP
01FFFFC0
0E000038
10000004
20000002
41FFFFC2
46000031
44000011
48000011
88000011
88000011
8800000F
88000000
88000000
88000000
88000000
88000000
88000000
88000000
88000000
8800000F
88000009
88000009
48000009
44000009
42000011
21FFFFE1
10000002
0C00000C
03FFFFF0
ENDCHAR
STARTCHAR 0064
ENCODING 100
SWIDTH 1027 0
DWIDTH 37 0
BBX 34 28 1 0
BITMAP
FFFFFFE000
8000001800
8000000600
8000000100
8FFFFFC100
8800003080
8800000880
8800000840
8800000440
8800000440
8800000440
8800000440
8800000440
8800000440
8800000440
8800000440
8800000440
8800000440
8800000440
8800000440
8800000440
8800000440
8800000880
8800001080
8FFFFFE100
8000000200
8000000C00
FFFFFFF000
ENDCHAR
STARTCHAR 0065
ENCODING 101
SWIDTH 833 0
DWIDTH 30 0
BBX 28 28 1 0
BITMAP
FFFFFFE0
80000020
80000020
80000020
8FFFFFE0
88000000
88000000
88000000
88000000
88000000
88000000
88000000
8FFFFFC0
80000040
80000040
8FFFFFC0
88000000
88000000
88000000
88000000
88000000
88000000
88000000
88000000
8FFFFFF0
80000010
80000010
FFFFFFF0
ENDCHAR
STARTCHAR 0066
ENCODING 102
SWIDTH 805 0
DWIDTH 29 0
BBX 26 28 1 0
BITMAP
FFFFFFC0
80000040
80000040
80000040
8FFFFF80
88000000
88000000
88000000
88000000
88000000
88000000
88000000
8FFFFFC0
80000040
80000040
80000040
8FFFFF80
88000000
88000000
88000000
88000000
88000000
88000000
88000000
88000000
88000000
88000000
F8000000
ENDCHAR
STARTCHAR 0067
ENCODING 103
SWIDTH 1000 0
DWIDTH 36 0
BBX 33 29 1 0
BITMAP
01FFFFC000
0E00003800
1000000400
2000000200
41FFFF8100
4600007100
4800000880
8800000880
8800000880
8800000F80
9000000000
9000000000
9000000000
9000000000
9001FFFF80
9001000080
9001000080
9001000080
9000FFFC80
8800000480
8800000480
8800000880
8800000880
4400000880
4300003100
20FFFFC100
1000000200
0C00000C00
03FFFFF000
ENDCHAR
STARTCHAR 0068
ENCODING 104
SWIDTH 1000 0
DWIDTH 36 0
BBX 33 28 1 0
BITMAP
F800000780
8800000880
8800000880
8800000880
8800000880
8800000880
8800000880
8800000880
8800000880
8800000880
8800000880
8800000880
87FFFFF080
8000000080
8000000080
8FFFFFF880
8800000880
8800000880
8800000880
8800000880
8800000880
8800000880
8800000880
8800000880
8800000880
8800000880
8800000880
F800000780
ENDCHAR
STARTCHAR 0069
ENCODING 105
SWIDTH 222 0
DWIDTH 8 0
BBX 5 28 1 0
BITMAP
F8
88
88
88
88
88
88
88
88
88
88
88
88
88
88
88
88
88
88
88
88
88
88
88
88
88
88
F8
ENDCHAR
STARTCHAR 006A
ENCODING 106
SWIDTH 777 0
DWIDTH 28 0
BBX 27 28 0 0
BITMAP
000001E0
00000220
00000220
00000220
00000220
00000220
00000220
00000220
00000220
00000220
00000220
00000220
00000220
00000220
00000220
00000220
00000220
78000220
88000220
88000220
88000220
88000220
84000240
44000240
43FFFC40
20000080
18000300
07FFFC00
ENDCHAR
STARTCHAR 006B
ENCODING 107
SWIDTH 1000 0
DWIDTH 36 0
BBX 34 28 1 0
BITMAP
F000007F80
9000008200
9000030400
9000041800
9000182000
900020C000
9000C10000
9001060000
9006080000
9008300000
9030400000
9041800000
8F82000000
800C000000
8004000000
8FC2000000
9021800000
9018400000
9004300000
9003080000
9000860000
9000618000
9000104000
90000C3000
9000020800
9000018600
9000004100
F000003FC0
ENDCHAR
STARTCHAR 006C
ENCODING 108
SWIDTH 777 0
DWIDTH 28 0
BBX 26 28 1 0
BITMAP
F8000000
88000000
88000000
88000000
88000000
88000000
88000000
88000000
88000000
88000000
88000000
88000000
88000000
88000000
88000000
88000000
88000000
88000000
88000000
88000000
88000000
88000000
88000000
88000000
87FFFFC0
80000040
80000040
FFFFFFC0
ENDCHAR
STARTCHAR 006D
ENCODING 109
SWIDTH 1305 0
DWIDTH 47 0
BBX 44 28 1 0
BITMAP
FF0000000FF0
810000001010
808000001010
884000002110
8C4000002310
8C2000004510
8A1000008510
891000008910
890800011110
888400021110
884400022110
884200042110
882100044110
881100088110
881080108110
880880110110
880440220110
880420420110
880220440110
880110840110
880108880110
880089100110
880046100110
880042200110
880020400110
880010400110
880008800110
F8000F0001F0
ENDCHAR
STARTCHAR 006E
ENCODING 110
SWIDTH 1027 0
DWIDTH 37 0
BBX 34 28 1 0
BITMAP
FE000003C0
8300000440
8180000440
80C0000440
8860000440
9430000440
9218000440
910C000440
9086000440
9043000440
9021000440
9010800440
9008400440
9004200440
9002100440
9001080440
9000840440
9000420440
9000210440
9000108440
9000084440
9000042440
9000021440
9000010C40
9000008440
9000004040
9000002040
F000001FC0
ENDCHAR
STARTCHAR 006F
ENCODING 111
SWIDTH 1055 0
DWIDTH 38 0
BBX 34 29 1 0
BITMAP
01FFFFF800
0E00000700
3000000080
4000000080
43FFFFF840
4400000440
8800000240
8800000240
9000000240
9000000240
9000000240
9000000240
9000000240
9000000240
9000000240
9000000240
9000000240
9000000240
9000000240
9000000240
9000000240
8800000240
8800000440
8800000440
4600000840
41FFFFF080
2000000100
1800000200
07FFFFFC00
ENDCHAR
STARTCHAR 0070
ENCODING 112
SWIDTH 944 0
DWIDTH 34 0
BBX 31 28 1 0
BITMAP
FFFFFFC0
80000030
80000008
80000004
8FFFFF84
88000044
88000022
88000022
88000022
88000022
88000022
88000022
88000044
88000184
87FFFE04
80000008
80000070
8FFFFF80
88000000
88000000
88000000
88000000
88000000
88000000
88000000
88000000
88000000
F8000000
ENDCHAR
STARTCHAR 0071
ENCODING 113
SWIDTH 1138 0
DWIDTH 41 0
BBX 38 29 1 0
BITMAP
03FFFFFC00
0C00000380
1000000040
207FFFE040
4380001C20
4400000220
8800000120
8800000110
8800000110
8800000110
8800000110
8800000110
8800000110
8800000110
88000E0110
8800090110
880010C110
88000C2110
8800021910
8800018710
8800004110
8800003010
8800000820
4400000618
4200000404
21FFFFF864
1000000098
0C00000300
03FFFFFC00
ENDCHAR
STARTCHAR 0072
ENCODING 114
SWIDTH 944 0
DWIDTH 34 0
BBX 31 28 1 0
BITMAP
FFFFFFE0
80000010
80000008
80000004
8FFFFFC4
88000022
88000022
88000012
88000012
88000012
88000022
88000022
88000022
88000044
87FFFF84
80000018
80000008
8FFFFFC4
88000022
88000022
88000022
88000022
88000022
88000022
88000022
88000022
88000022
F800001E
ENDCHAR
STARTCHAR 0073
ENCODING 115
SWIDTH 944 0
DWIDTH 34 0
BBX 30 29 1 0
BITMAP
03FFFE00
0C0001C0
30000020
40000010
43FFFF08
8C000088
88000048
90000048
90000048
90000078
90000000
88000000
47000000
40FFFFE0
20000010
1C000008
03FFFF04
000000C4
00000044
70000024
90000024
90000024
90000024
88000044
86000184
41FFFE08
20000018
18000060
07FFFF80
ENDCHAR
STARTCHAR 0074
ENCODING 116
SWIDTH 916 0
DWIDTH 33 0
BBX 31 28 0 0
BITMAP
7FFFFFFE
80000002
80000002
80000002
7FFE3FFE
00024000
00024000
00024000
00024000
00024000
00024000
00024000
00024000
00024000
00024000
00024000
00024000
00024000
00024000
00024000
00024000
00024000
00024000
00024000
00024000
00024000
00024000
0003C000
ENDCHAR
STARTCHAR 0075
ENCODING 117
SWIDTH 972 0
DWIDTH 35 0
BBX 32 28 1 0
BITMAP
F800000F
88000009
88000009
88000009
88000009
88000009
88000009
88000009
88000009
88000009
88000009
88000009
88000009
88000009
88000009
88000009
88000009
88000009
88000009
88000009
88000009
88000009
88000011
84000011
43FFFFE2
20000002
1000000C
0FFFFFF0
ENDCHAR
STARTCHAR 0076
ENCODING 118
SWIDTH 1055 0
DWIDTH 38 0
BBX 35 28 1 0
BITMAP
F0000003E0
8800000220
8800000440
4400000480
4400000880
2200000900
2100001100
1100001200
0880002200
0880004400
0440004400
0440008800
0220008800
0220011000
0110011000
0088022000
0088024000
0044044000
0044048000
0022088000
0022090000
0011110000
0010920000
0008A20000
0004440000
0004040000
0002080000
0003F80000
ENDCHAR
STARTCHAR 0077
ENCODING 119
SWIDTH 1694 0
DWIDTH 61 0
BBX 58 28 1 0
BITMAP
F000003E000007C0
8800004200000480
8800004100000880
4400008100000900
4400008880001100
4400010880001100
2200011440002200
2200022440002200
1100022420004400
1100022220004400
0880044220008800
0880044110008800
0440088110011000
0440088088011000
0220110088022000
0220110084022000
0210210044044000
0110220044044000
0108220022084000
0088440022088000
0084440011108000
0044880011110000
0044880010910000
0023100008A20000
0021100008A20000
0010100004440000
0010200004040000
000FE00003F80000
ENDCHAR
STARTCHAR 0078
ENCODING 120
SWIDTH 1083 0
DWIDTH 39 0
BBX 37 28 1 0
BITMAP
7E000007E0
4100000C40
2080001080
1040002100
0820004200
0610008400
0108010800
0084021000
0042042000
0021084000
0010908000
0008610000
0004020000
0002040000
0004020000
0008210000
0010D08000
0021084000
0042042000
0084021000
0108010800
021000C400
0420002200
0840001100
1080000880
2180000440
4100000230
FE000001F8
ENDCHAR
STARTCHAR 0079
ENCODING 121
SWIDTH 1055 0
DWIDTH 38 0
BBX 35 28 1 0
BITMAP
FC000007E0
8400000840
4200001080
2100001100
1080002200
0840004400
0420008800
0210011000
0108022000
0084044000
0042084000
0021108000
0010A10000
000C420000
0002040000
0001080000
0001100000
0001100000
0001100000
0001100000
0001100000
0001100000
0001100000
0001100000
0001100000
0001100000
0001100000
0000F00000
ENDCHAR
STARTCHAR 007A
ENCODING 122
SWIDTH 916 0
DWIDTH 33 0
BBX 32 28 0 0
BITMAP
7FFFFFFE
40000002
40000002
40000002
3FFFFF82
00000104
00000618
00000820
00001040
00002080
00004100
00008600
00030800
00041000
00082000
00104000
00208000
00430000
01840000
02080000
04100000
08200000
10C00000
21000000
C0FFFFFF
80000001
80000001
7FFFFFFF
ENDCHAR
STARTCHAR 007B
ENCODING 123
SWIDTH 444 0
DWIDTH 16 0
BBX 13 28 1 0
BITMAP
03F8
0C08
19F8
1200
2600
2400
2400
2400
2400
2400
2400
2400
C400
8C00
E400
2400
2400
2400
2400
2400
2400
2400
2200
1300
10F8
0808
0408
03F8
ENDCHAR
STARTCHAR 007C
ENCODING 124
SWIDTH 166 0
DWIDTH 6 0
BBX 4 35 1 -7
BITMAP
F0
90
90
90
90
90
90
90
90
90
90
90
90
90
90
90
90
90
90
90
90
90
90
90
90
90
90
90
90
90
90
90
90
90
F0
ENDCHAR
STARTCHAR 007D
ENCODING 125
SWIDTH 416 0
DWIDTH 15 0
BBX 13 28 1 0
BITMAP
FE00
8180
FCC0
0640
0320
0120
0120
0120
0120
0120
0120
0120
0118
01C8
0118
0120
0120
0120
0120
0120
0120
0120
0220
0640
F840
8080
8300
FC00
ENDCHAR
STARTCHAR 007E
ENCODING 126
SWIDTH 416 0
DWIDTH 15 0
BBX 13 6 1 22
BITMAP
3878
4648
81C8
9C08
9210
F1E0
ENDCHAR
STARTCHAR 00A0
ENCODING 160
SWIDTH 555 0
DWIDTH 20 0
BBX 0 0 0 0
BITMAP
ENDCHAR
STARTCHAR 00A1
ENCODING 161
SWIDTH 222 0
DWIDTH 8 0
BBX 5 29 1 -8
BITMAP
F8
88
88
88
88
F8
00
00
F8
88
88
88
88
88
88
88
88
88
88
88
88
88
88
88
88
88
88
88
F8
ENDCHAR
STARTCHAR 00A2
ENCODING 162
SWIDTH 972 0
DWIDTH 35 0
BBX 32 36 1 -4
BITMAP
0003C000
00024000
00024000
01FE7FE0
0E000018
10000004
20000002
40FE7FC2
43024031
44024009
C4024009
88024009
88024009
8802400F
88024000
88024000
88024000
88024000
88024000
88024000
88024000
88024000
8802400F
88024009
88024009
44024009
44024009
43024009
20FE7FF2
30000002
0800000C
07FE7FF0
00024000
00024000
00024000
0003C000
ENDCHAR
STARTCHAR 00A3
ENCODING 163
SWIDTH 1055 0
DWIDTH 38 0
BBX 35 28 1 0
BITMAP
00007FE000
0003801C00
000C000200
0010FFC100
0011003880
0022000480
0024000480
0048000480
00480003C0
0048000000
0090000000
0090000000
FF1FFFE000
8000002000
8000002000
FE3FFFE000
0240000000
0240000000
0480000000
0480000000
0880000000
0900000000
0900000000
1200000000
63FFFFFFE0
8000000020
8000000020
FFFFFFFFE0
ENDCHAR
STARTCHAR 00A5
ENCODING 165
SWIDTH 1083 0
DWIDTH 39 0
BBX 35 28 2 0
BITMAP
FC000007E0
8600000840
4300001080
2180002100
1080004200
0840008400
0420010800
0210021000
0108042000
0084084000
0FC208FE00
0801100200
0800A00200
0FF847FE00
0004040000
0002080000
0001100000
0FFF1FFE00
0800000200
0800000200
0FFF1FFE00
0001100000
0001100000
0001100000
0001100000
0001100000
0001100000
0001F00000
ENDCHAR
STARTCHAR 00A7
ENCODING 167
SWIDTH 583 0
DWIDTH 21 0
BBX 19 37 1 -8
BITMAP
03E000
0C1800
18C400
133200
240A00
280500
280500
280700
240000
120000
090000
10C000
2E2000
519800
A04600
A03100
A00880
A00640
900220
480120
440120
330120
088240
046640
031980
008200
006400
001200
000900
380900
280500
280500
140900
160A00
09F600
060C00
01F000
ENDCHAR
STARTCHAR 00A8
ENCODING 168
SWIDTH 388 0
DWIDTH 14 0
BBX 12 5 1 23
BITMAP
FBF0
8A10
8A10
8A10
FBF0
ENDCHAR
STARTCHAR 00A9
ENCODING 169
SWIDTH 888 0
DWIDTH 32 0
BBX 27 28 2 -1
BITMAP
001F8000
01FFF000
03803C00
0E000E00
1C000300
18000180
301F8080
6060E0C0
60C06040
41803060
C1803060
C1000020
C3000020
83000020
83000020
C3000020
C3000020
C3001020
41803060
61802040
60C060C0
3079C0C0
301F0180
18000300
0C000600
07001C00
01E0F800
007FC000
ENDCHAR
STARTCHAR 00AA
ENCODING 170
SWIDTH 611 0
DWIDTH 22 0
BBX 20 19 1 10
BITMAP
00E000
011000
01D000
02A800
052800
051400
0A1200
0A0A00
140900
140500
23F880
200080
5FFF40
900140
A000A0
400040
FFFFF0
800010
FFFFF0
ENDCHAR
STARTCHAR 00AB
ENCODING 171
SWIDTH 583 0
DWIDTH 21 0
BBX 19 17 1 3
BITMAP
008020
0380E0
048120
088220
308C20
4310C0
842100
882200
902400
882200
C63180
210840
108420
088220
048120
0380E0
008020
ENDCHAR
STARTCHAR 00AC
ENCODING 172
SWIDTH 833 0
DWIDTH 30 0
BBX 28 12 1 0
BITMAP
FFFFFFF0
80000010
FFFFFFD0
00000050
00000050
00000050
00000050
00000050
00000050
00000050
00000050
00000070
ENDCHAR
STARTCHAR 00AE
ENCODING 174
SWIDTH 888 0
DWIDTH 32 0
BBX 27 28 2 -1
BITMAP
003F8000
01FBF000
07001C00
0C000600
18000300
30000180
30FFC080
60C0E0C0
40C03040
C0C03060
C0C03060
C0C03020
80C03020
80C0E020
80FF8020
80C0E020
C0C06020
C0C06060
C0C06060
40C02040
60C020C0
30C02080
30C03180
18000300
0E000600
07001C00
01FBF000
007F8000
ENDCHAR
STARTCHAR 00B0
ENCODING 176
SWIDTH 333 0
DWIDTH 12 0
BBX 10 10 1 18
BITMAP
1E00
2180
4E80
9140
A140
9140
8E40
4080
2180
1F00
ENDCHAR
STARTCHAR 00B1
ENCODING 177
SWIDTH 527 0
DWIDTH 19 0
BBX 16 20 1 0
BITMAP
01C0
0140
0140
0140
0140
0140
FF7F
8001
FF7F
0140
0140
0140
0140
0140
0140
01C0
0000
0000
FFFF
FFFF
ENDCHAR
STARTCHAR 00B4
ENCODING 180
SWIDTH 277 0
DWIDTH 10 0
BBX 8 7 1 21
BITMAP
1F
22
24
44
48
90
70
ENDCHAR
STARTCHAR 00B5
ENCODING 181
SWIDTH 638 0
DWIDTH 23 0
BBX 22 30 0 -9
BITMAP
780780
480480
480480
480480
480480
480480
480480
480480
480480
480480
480480
480480
480480
480480
480480
480480
440884
46348C
43CC54
601428
786210
678120
7000C0
500000
980000
880000
880000
880000
D80000
700000
ENDCHAR
STARTCHAR 00B6
ENCODING 182
SWIDTH 583 0
DWIDTH 21 0
BBX 18 35 1 -7
BITMAP
03FFC0
0C0040
303F40
202140
402140
402140
802140
802140
802140
802140
C02140
402140
602140
302140
1C2140
07A140
00A140
00A140
00A140
00A140
00A140
00A140
00A140
00A140
00A140
00A140
00A140
00A140
00A140
00A140
00A140
00A140
00A140
00A140
00E1C0
ENDCHAR
STARTCHAR 00B7
ENCODING 183
SWIDTH 222 0
DWIDTH 8 0
BBX 6 6 1 11
BITMAP
FC
84
84
84
84
FC
ENDCHAR
STARTCHAR 00BA
ENCODING 186
SWIDTH 555 0
DWIDTH 20 0
BBX 18 19 1 10
BITMAP
1FFF00
600180
8FFC80
B00280
A00180
C00180
C00180
C00180
C00180
C00180
A00180
A00280
900680
4FF900
3FFE00
000000
FFFFC0
800040
FFFFC0
ENDCHAR
STARTCHAR 00BB
ENCODING 187
SWIDTH 583 0
DWIDTH 21 0
BBX 19 17 1 3
BITMAP
802000
C03000
B02C00
882200
862180
611840
108420
088220
048120
088220
318C60
421080
842100
882200
B02C00
C03000
802000
ENDCHAR
STARTCHAR 00BF
ENCODING 191
SWIDTH 805 0
DWIDTH 29 0
BBX 26 29 1 -8
BITMAP
000F8000
00088000
00088000
00088000
00088000
000F8000
00000000
00000000
00000000
000F8000
00088000
00088000
00710000
07810000
18060000
20F80000
4F000000
90000000
900003C0
90000240
90000240
90000240
90000240
90000640
C8000C40
4FFFF080
60000080
18000700
07FFF800
ENDCHAR
STARTCHAR 00C0
ENCODING 192
SWIDTH 1111 0
DWIDTH 40 0
BBX 37 37 1 0
BITMAP
0001F00000
0001100000
0000900000
0000880000
0000480000
0000240000
00001C0000
0000000000
0000000000
0001F80000
0002040000
0002040000
0004620000
0004A10000
0008910000
0009108000
0011088000
0022044000
0022044000
0044022000
0044021000
0088011000
0090010800
0110008800
0220004400
0220004400
0440002200
047FFFE100
0800000100
0800000080
11FFFFF880
2100000440
2200000440
4200000220
4400000110
8800000110
F8000000F8
ENDCHAR
STARTCHAR 00C1
ENCODING 193
SWIDTH 1111 0
DWIDTH 40 0
BBX 37 37 1 0
BITMAP
0000FC0000
0000880000
0001100000
0001200000
0001200000
0002400000
0003800000
0000000000
0000000000
0001F80000
0002040000
0002040000
0004620000
0004A10000
0008910000
0009108000
0011088000
0022044000
0022044000
0044022000
0044021000
0088011000
0088008800
0110008800
0210004400
0220004400
0440002200
047FFFE100
0800000100
0800000080
1000000080
21FFFFFC40
2200000440
4200000220
4400000110
8800000110
F8000000F8
ENDCHAR
STARTCHAR 00C2
ENCODING 194
SWIDTH 1111 0
DWIDTH 40 0
BBX 37 35 1 1
BITMAP
0003FC0000
0004040000
0004620000
0008920000
000F0F0000
0000000000
0000000000
0003F80000
0002040000
0004440000
0004A20000
0008910000
0009110000
0011088000
0012088000
0022044000
0044044000
0044022000
0088021000
0088011000
0110008800
0110008800
0220004400
0220004400
0440002200
087FFFE200
0800000100
1000000080
11FFFFF880
2100000440
2200000440
4400000220
4400000220
8800000110
F8000000F8
ENDCHAR
STARTCHAR 00C3
ENCODING 195
SWIDTH 1111 0
DWIDTH 40 0
BBX 37 36 1 0
BITMAP
0007870000
0004650000
00081D0000
000B810000
000A620000
000E1C0000
0000000000
0000000000
0001FC0000
0001060000
0002020000
0004230000
0004610000
0008918000
000888C000
0011084000
0012046000
0022042000
0024023000
0044011000
0088011800
0088008800
0110008400
0110004400
0220004200
0220002300
043FFFF100
0800000080
0800000080
10FFFFFC40
1100000440
2200000220
2200000220
4400000110
4400000110
F8000000F8
ENDCHAR
STARTCHAR 00C4
ENCODING 196
SWIDTH 1111 0
DWIDTH 40 0
BBX 37 35 1 0
BITMAP
000F9F0000
0008A10000
0008A10000
0008A10000
000F9F0000
0000000000
0000000000
0001F80000
0002040000
0004020000
0004620000
0008910000
0008910000
0011088000
0011088000
0022044000
0022042000
0044022000
0088011000
0088011000
0110008800
0110008800
0220004400
0220004400
0440002200
047FFFF100
0800000100
0800000080
1000000080
21FFFFFC40
2200000440
4200000220
4400000110
8800000110
F8000000F8
ENDCHAR
STARTCHAR 00C5
ENCODING 197
SWIDTH 1083 0
DWIDTH 39 0
BBX 37 38 1 1
BITMAP
0001F80000
0002040000
0002F40000
0002940000
0002940000
0002740000
0001080000
0000F00000
0000000000
0000000000
0001F80000
0002040000
0004220000
0004620000
0008910000
0008910000
0011088000
0011088000
0022044000
0024042000
0044022000
0088011000
0088011000
0110008800
0110008800
0220004400
0220004200
0440002200
047FFFF100
0800000100
1000000080
10FFFFF880
2100000440
2200000440
4200000220
4400000110
8800000110
F8000000F8
ENDCHAR
STARTCHAR 00C6
ENCODING 198
SWIDTH 1750 0
DWIDTH 63 0
BBX 59 28 1 0
BITMAP
00000001FFFFFFC0
0000000200000040
0000000400000040
000000089FFFFFC0
0000003190000000
0000006290000000
0000008C90000000
0000011090000000
0000022090000000
0000044090000000
0000088090000000
0000330090000000
000044009FFFFFC0
0000880080000040
0001100080000040
000260009FFFFFC0
0004800090000000
0019000090000000
0021FFFF90000000
0040000010000000
0080000010000000
013FFFFF90000000
0260000090000000
04C0000090000000
198000009FFFFFE0
2200000080000020
4400000080000020
F8000000FFFFFFE0
ENDCHAR
STARTCHAR 00C7
ENCODING 199
SWIDTH 972 0
DWIDTH 35 0
BBX 32 36 1 -8
BITMAP
01FFFFC0
0E000038
1000000C
20000002
40FFFFC2
43000031
44000009
C4000009
88000009
88000009
8800000F
88000000
88000000
88000000
88000000
88000000
88000000
88000000
88000000
8800000F
88000009
88000009
44000009
44000009
43000009
20FFFFF2
10000002
0C000004
03FFCFF8
00005000
00009000
00011000
00012000
00012000
0000A000
00006000
ENDCHAR
STARTCHAR 00C8
ENCODING 200
SWIDTH 833 0
DWIDTH 30 0
BBX 28 37 1 1
BITMAP
001F0000
00110000
00088000
00048000
00048000
00024000
0001C000
00000000
00000000
FFFFFFE0
80000020
80000020
80000020
8FFFFFC0
88000000
88000000
88000000
88000000
88000000
88000000
88000000
87FFFFC0
80000040
80000040
8FFFFF80
88000000
88000000
88000000
88000000
88000000
88000000
88000000
88000000
8FFFFFF0
80000010
80000010
7FFFFFF0
ENDCHAR
STARTCHAR 00C9
ENCODING 201
SWIDTH 861 0
DWIDTH 31 0
BBX 27 37 1 0
BITMAP
0003E000
00044000
00088000
00088000
00090000
00120000
001C0000
00000000
00000000
FFFFFFE0
80000020
80000020
8FFFFFE0
88000000
88000000
88000000
88000000
88000000
88000000
88000000
8FFFFFE0
80000020
80000020
80000020
8FFFFFE0
88000000
88000000
88000000
88000000
88000000
88000000
88000000
88000000
8FFFFFE0
80000020
80000020
FFFFFFE0
ENDCHAR
STARTCHAR 00CA
ENCODING 202
SWIDTH 833 0
DWIDTH 30 0
BBX 28 35 1 1
BITMAP
001FE000
00102000
00231000
00249000
00787800
00000000
00000000
FFFFFFE0
80000020
80000020
80000020
8FFFFFC0
88000000
88000000
88000000
88000000
88000000
88000000
88000000
87FFFFC0
80000040
80000040
8FFFFF80
88000000
88000000
88000000
88000000
88000000
88000000
88000000
88000000
8FFFFFF0
80000010
80000010
FFFFFFF0
ENDCHAR
STARTCHAR 00CB
ENCODING 203
SWIDTH 861 0
DWIDTH 31 0
BBX 28 35 1 0
BITMAP
00F9F000
008A1000
008A1000
008A1000
00F9F000
00000000
00000000
FFFFFFE0
80000020
80000020
80000020
8FFFFFC0
88000000
88000000
88000000
88000000
88000000
88000000
88000000
87FFFFC0
80000040
80000040
8FFFFF80
88000000
88000000
88000000
88000000
88000000
88000000
88000000
88000000
8FFFFFF0
80000010
80000010
FFFFFFF0
ENDCHAR
STARTCHAR 00CC
ENCODING 204
SWIDTH 222 0
DWIDTH 8 0
BBX 8 37 0 1
BITMAP
FC
44
24
22
12
0A
07
00
00
7C
44
44
44
44
44
44
44
44
44
44
44
44
44
44
44
44
44
44
44
44
44
44
44
44
44
44
3C
ENDCHAR
STARTCHAR 00CD
ENCODING 205
SWIDTH 222 0
DWIDTH 8 0
BBX 7 37 1 1
BITMAP
3E
44
44
48
90
90
E0
00
00
F8
88
88
88
88
88
88
88
88
88
88
88
88
88
88
88
88
88
88
88
88
88
88
88
88
88
88
78
ENDCHAR
STARTCHAR 00CE
ENCODING 206
SWIDTH 222 0
DWIDTH 8 0
BBX 12 35 -2 1
BITMAP
3FC0
4040
4620
8920
F0F0
0000
0000
1F00
1100
1100
1100
1100
1100
1100
1100
1100
1100
1100
1100
1100
1100
1100
1100
1100
1100
1100
1100
1100
1100
1100
1100
1100
1100
1100
1F00
ENDCHAR
STARTCHAR 00CF
ENCODING 207
SWIDTH 194 0
DWIDTH 7 0
BBX 12 35 -3 0
BITMAP
7DF0
8510
8510
8510
7DF0
0000
0000
0F80
0880
0880
0880
0880
0880
0880
0880
0880
0880
0880
0880
0880
0880
0880
0880
0880
0880
0880
0880
0880
0880
0880
0880
0880
0880
0880
0F80
ENDCHAR
STARTCHAR 00D1
ENCODING 209
SWIDTH 1027 0
DWIDTH 37 0
BBX 34 35 1 1
BITMAP
0003F80000
0004040000
0004640000
0008A20000
000F1E0000
0000000000
0000000000
FE000007C0
8100000440
8080000440
8840000440
8C20000440
8A10000440
8908000440
8884000440
8842000440
8821000440
8810800440
8808400440
8804200440
8802100440
8801080440
8800840440
8800420440
8800210440
8800108440
8800084440
8800042440
8800021440
8800011440
8800008C40
8800004040
8800004040
8800002040
7800001FC0
ENDCHAR
STARTCHAR 00D2
ENCODING 210
SWIDTH 1055 0
DWIDTH 38 0
BBX 34 37 1 0
BITMAP
0003E00000
0002200000
0001100000
0000900000
0000900000
0000480000
0000380000
0000000000
01FFFFF800
0E00000700
3000000080
4000000080
43FFFFF840
4400000440
8800000240
8800000240
9000000240
9000000240
9000000240
9000000240
9000000240
9000000240
9000000240
9000000240
9000000240
9000000240
9000000240
9000000240
9000000240
8800000240
8800000440
8800000440
4600000840
41FFFFF080
2000000100
1800000200
07FFFFFC00
ENDCHAR
STARTCHAR 00D3
ENCODING 211
SWIDTH 1055 0
DWIDTH 38 0
BBX 34 37 1 0
BITMAP
0000F80000
0001100000
0001100000
0002200000
0002400000
0004800000
0003800000
0000000000
01FFFFF800
0E00000700
3000000080
4000000080
43FFFFF840
4400000440
8800000240
8800000240
9000000240
9000000240
9000000240
9000000240
9000000240
9000000240
9000000240
9000000240
9000000240
9000000240
9000000240
9000000240
9000000240
8800000240
8800000440
8800000440
4600000840
41FFFFF080
2000000100
1800000200
07FFFFFC00
ENDCHAR
STARTCHAR 00D4
ENCODING 212
SWIDTH 1055 0
DWIDTH 38 0
BBX 34 35 1 0
BITMAP
0003F80000
0004080000
0008440000
0009A40000
000F1E0000
0000000000
01FFFFF800
0E00000700
3000000080
4000000080
43FFFFF840
4400000440
8800000240
8800000240
9000000240
9000000240
9000000240
9000000240
9000000240
9000000240
9000000240
9000000240
9000000240
9000000240
9000000240
9000000240
9000000240
8800000240
8800000440
8800000440
4600000840
41FFFFF080
2000000100
1800000200
07FFFFFC00
ENDCHAR
STARTCHAR 00D5
ENCODING 213
SWIDTH 1055 0
DWIDTH 38 0
BBX 35 36 1 0
BITMAP
000F0E0000
0008CA0000
00103A0000
0017020000
0014C40000
001C380000
0000000000
01FFFFF800
0E00000700
3000000080
6000000040
40FFFFF040
4300000C60
8400000420
8400000220
8800000220
8800000220
8800000220
8800000220
8800000220
8800000220
8800000220
8800000220
8800000220
8800000220
8800000220
8800000220
8800000220
8800000220
8800000220
8400000440
4400000C40
43FFFFF040
2000000080
1800000300
07FFFFFC00
ENDCHAR
STARTCHAR 00D6
ENCODING 214
SWIDTH 1055 0
DWIDTH 38 0
BBX 35 35 1 0
BITMAP
001FBE0000
0010A20000
0010A20000
0010A20000
001FBE0000
0000000000
01FFFFFC00
1C00000700
3000000080
4000000040
40FFFFF040
4300000C60
8400000420
8400000220
8800000220
8800000220
8800000220
8800000220
8800000220
8800000220
8800000220
8800000220
8800000220
8800000220
8800000220
8800000220
8800000220
8800000220
8800000220
8400000440
4400000C40
43FFFFF040
2000000080
1800000300
07FFFFFC00
ENDCHAR
STARTCHAR 00D8
ENCODING 216
SWIDTH 1083 0
DWIDTH 39 0
BBX 35 36 1 -3
BITMAP
00000000C0
0000000120
0000000220
03FFFFFC40
1C00000080
3000000100
6000000100
43FFFFF080
CC000022C0
8800004D40
9000009140
9000032120
9000044120
9000088120
9000110120
9000220120
9000440120
9000980120
9001200120
9002400120
9004800120
9009000120
9012000120
9024000120
9048000120
9090000220
8920000240
4A40000C40
447FFFF040
2000000080
1000000700
23FFFFF800
4400000000
8800000000
5000000000
2000000000
ENDCHAR
STARTCHAR 00D9
ENCODING 217
SWIDTH 972 0
DWIDTH 35 0
BBX 32 37 1 0
BITMAP
0007C000
00044000
00022000
00012000
00009000
00005000
00007000
00000000
00000000
F800000F
88000009
88000009
88000009
88000009
88000009
88000009
88000009
88000009
88000009
88000009
88000009
88000009
88000009
88000009
88000009
88000009
88000009
88000009
88000009
88000009
88000009
88000011
84000011
43FFFFE2
20000002
1000000C
0FFFFFF0
ENDCHAR
STARTCHAR 00DA
ENCODING 218
SWIDTH 972 0
DWIDTH 35 0
BBX 32 37 1 0
BITMAP
0001F000
00022000
00022000
00024000
00048000
00048000
00070000
00000000
00000000
F800000F
88000009
88000009
88000009
88000009
88000009
88000009
88000009
88000009
88000009
88000009
88000009
88000009
88000009
88000009
88000009
88000009
88000009
88000009
88000009
88000009
88000009
88000011
84000011
43FFFFE2
20000002
1000000C
0FFFFFF0
ENDCHAR
STARTCHAR 00DB
ENCODING 219
SWIDTH 972 0
DWIDTH 35 0
BBX 32 35 1 1
BITMAP
000FF000
00088800
00118800
00134400
001E3C00
00000000
F000000F
90000011
90000011
90000011
90000011
90000011
90000011
90000011
90000011
90000011
90000011
90000011
90000011
90000011
90000011
90000011
90000011
90000011
90000011
90000011
90000011
90000011
90000011
88000011
84000011
43FFFFE2
20000004
10000018
0FFFFFE0
ENDCHAR
STARTCHAR 00DC
ENCODING 220
SWIDTH 972 0
DWIDTH 35 0
BBX 32 35 1 0
BITMAP
001F7E00
00114200
00114200
00114200
001F7E00
00000000
00000000
F800000F
88000009
88000009
88000009
88000009
88000009
88000009
88000009
88000009
88000009
88000009
88000009
88000009
88000009
88000009
88000009
88000009
88000009
88000009
88000009
88000009
88000009
8C000019
87000031
40FFFFC2
60000002
1000000C
0FFFFFF0
ENDCHAR
STARTCHAR 00DF
ENCODING 223
SWIDTH 972 0
DWIDTH 35 0
BBX 32 28 1 0
BITMAP
0FFFFFE0
30000018
6000000C
43FFFFC4
84000042
88000022
88000022
88000022
88000022
88000022
88000062
8FFFFFC4
80000018
8000000C
8FFFFFC2
88000022
88000011
88000011
88000011
88000011
88000011
88000011
88000031
88000061
89FFFFC2
89000004
89000018
F9FFFFE0
ENDCHAR
STARTCHAR 00E0
ENCODING 224
SWIDTH 1111 0
DWIDTH 40 0
BBX 37 37 1 0
BITMAP
0001F00000
0001100000
0000880000
0000480000
0000480000
0000240000
00001C0000
0000000000
0000000000
0001F80000
0002040000
0002040000
0004620000
0004A10000
0008910000
0009108000
0011088000
0022044000
0022044000
0044022000
0044021000
0088011000
0088008800
0110008800
0210004400
0220004400
0440002200
047FFFE100
0800000100
0800000080
1000000080
21FFFFFC40
2200000440
4200000220
4400000110
8800000110
F8000000F8
ENDCHAR
STARTCHAR 00E1
ENCODING 225
SWIDTH 1111 0
DWIDTH 40 0
BBX 37 37 1 0
BITMAP
0000FC0000
0000880000
0001100000
0001200000
0002200000
0002400000
0003800000
0000000000
0000000000
0001F80000
0002040000
0002040000
0004620000
0004A10000
0008910000
0009108000
0011088000
0022044000
0022044000
0044022000
0044021000
0088011000
0088008800
0110008800
0210004400
0220004400
0440002200
047FFFE100
0800000100
0800000080
1000000080
21FFFFFC40
2200000440
4200000220
4400000110
8800000110
F8000000F8
ENDCHAR
STARTCHAR 00E2
ENCODING 226
SWIDTH 1111 0
DWIDTH 40 0
BBX 37 35 1 0
BITMAP
0003FC0000
0002040000
0004620000
0008920000
000F0F0000
0000000000
0000000000
0001F80000
0002040000
0002040000
0004620000
0004A10000
0008910000
0009108000
0011088000
0022044000
0022044000
0044022000
0044021000
0088011000
0088008800
0110008800
0210004400
0220004400
0440002200
047FFFE100
0800000100
0800000080
1000000080
21FFFFFC40
2200000440
4200000220
4400000110
8800000110
F8000000F8
ENDCHAR
STARTCHAR 00E3
ENCODING 227
SWIDTH 1111 0
DWIDTH 40 0
BBX 36 36 2 0
BITMAP
000F0E0000
0008CA0000
00103A0000
0017020000
0014C40000
001C380000
0000000000
0000000000
0001F80000
0002040000
0004440000
0004420000
0008A10000
0009210000
0011108000
0012088000
0022084000
0044044000
0044042000
0088022000
0088021000
0110010800
0110008800
0220008400
0420004400
0440004200
087FFFE200
0800000100
1000000100
1000000080
23FFFFF840
2200000440
4400000420
8400000220
8800000110
F8000000F0
ENDCHAR
STARTCHAR 00E4
ENCODING 228
SWIDTH 1111 0
DWIDTH 40 0
BBX 37 35 1 0
BITMAP
000FDF0000
0008510000
0008510000
0008510000
000FDF0000
0000000000
0000000000
0000FC0000
0001040000
0002020000
0002210000
0004510000
0004488000
0008888000
0011044000
0011044000
0022022000
0022021000
0044011000
0088008800
0088008800
0110004400
0110004200
0220002200
0440001100
047FFFF100
0800000080
0800000080
1000000040
21FFFFFC20
2200000220
4200000110
4400000110
8800000088
F800000078
ENDCHAR
STARTCHAR 00E5
ENCODING 229
SWIDTH 1111 0
DWIDTH 40 0
BBX 37 38 1 1
BITMAP
0001F80000
0002040000
0002F40000
0002940000
0002940000
0002740000
0001080000
0000F00000
0000000000
0000000000
0001F80000
0002040000
0004220000
0004620000
0008910000
0008910000
0011088000
0011088000
0022044000
0024042000
0044022000
0088011000
0088011000
0110008800
0110008800
0220004400
0220004200
0440002200
047FFFF100
0800000100
1000000080
10FFFFF880
2100000440
2200000440
4200000220
4400000110
8800000110
F8000000F8
ENDCHAR
STARTCHAR 00E6
ENCODING 230
SWIDTH 1750 0
DWIDTH 63 0
BBX 58 28 2 0
BITMAP
00000003FFFFFFC0
0000000600000040
0000000C00000040
0000001000000040
000000213FFFFF80
0000004720000000
0000008920000000
0000031120000000
0000062120000000
0000084120000000
0000118120000000
0000220120000000
000044011FFFFF80
0000880100000080
0003100100000080
000460011FFFFF80
0008800120000000
0011000120000000
0022000120000000
0041FFFE20000000
0180000020000000
0200000020000000
047FFFFF20000000
0880000120000000
110000011FFFFFC0
2200000100000040
C400000100000040
F8000001FFFFFFC0
ENDCHAR
STARTCHAR 00E7
ENCODING 231
SWIDTH 972 0
DWIDTH 35 0
BBX 32 36 1 -8
BITMAP
01FFFFE0
0E000038
10000004
20000002
21FFFFC2
46000031
44000011
48000009
88000009
88000009
88000006
88000000
88000000
88000000
88000000
88000000
88000000
88000000
88000000
8800000F
88000009
48000009
44000009
44000011
43000031
20FFFFC1
10000002
0C00000C
03FF9FF0
0000A000
00012000
00012000
00024000
00024000
0001C000
00004000
ENDCHAR
STARTCHAR 00E8
ENCODING 232
SWIDTH 833 0
DWIDTH 30 0
BBX 28 37 1 1
BITMAP
001F0000
00110000
00088000
00048000
00048000
00024000
0001C000
00000000
00000000
FFFFFFE0
80000020
80000020
80000020
8FFFFFC0
88000000
88000000
88000000
88000000
88000000
88000000
88000000
87FFFFE0
80000020
80000020
8FFFFFC0
88000000
88000000
88000000
88000000
88000000
88000000
88000000
88000000
87FFFFF0
80000010
80000010
7FFFFFF0
ENDCHAR
STARTCHAR 00E9
ENCODING 233
SWIDTH 833 0
DWIDTH 30 0
BBX 28 37 1 1
BITMAP
0007C000
00088000
00088000
00110000
00120000
00160000
001C0000
00000000
00000000
FFFFFFE0
80000020
80000020
80000020
8FFFFFC0
88000000
88000000
88000000
88000000
88000000
88000000
88000000
87FFFFC0
80000040
80000040
8FFFFF80
88000000
88000000
88000000
88000000
88000000
88000000
88000000
88000000
8FFFFFF0
80000010
80000010
7FFFFFF0
ENDCHAR
STARTCHAR 00EA
ENCODING 234
SWIDTH 833 0
DWIDTH 30 0
BBX 28 35 1 1
BITMAP
001FE000
00102000
00231000
00249000
00787800
00000000
00000000
FFFFFFE0
80000020
80000020
80000020
8FFFFFC0
88000000
88000000
88000000
88000000
88000000
88000000
88000000
87FFFFC0
80000040
80000040
8FFFFF80
88000000
88000000
88000000
88000000
88000000
88000000
88000000
88000000
8FFFFFF0
80000010
80000010
FFFFFFF0
ENDCHAR
STARTCHAR 00EB
ENCODING 235
SWIDTH 861 0
DWIDTH 31 0
BBX 28 35 1 0
BITMAP
00F9F000
008A1000
008A1000
008A1000
00F9F000
00000000
00000000
FFFFFFE0
80000020
80000020
80000020
8FFFFFC0
88000000
88000000
88000000
88000000
88000000
88000000
88000000
87FFFFC0
80000040
80000040
8FFFFF80
88000000
88000000
88000000
88000000
88000000
88000000
88000000
88000000
8FFFFFF0
80000010
80000010
7FFFFFF0
ENDCHAR
STARTCHAR 00EC
ENCODING 236
SWIDTH 222 0
DWIDTH 8 0
BBX 7 37 1 1
BITMAP
F8
88
44
24
24
12
0E
00
00
F8
88
88
88
88
88
88
88
88
88
88
88
88
88
88
88
88
88
88
88
88
88
88
88
88
88
88
78
ENDCHAR
STARTCHAR 00ED
ENCODING 237
SWIDTH 194 0
DWIDTH 7 0
BBX 7 37 1 1
BITMAP
7E
44
48
88
90
A0
E0
00
00
F8
88
88
88
88
88
88
88
88
88
88
88
88
88
88
88
88
88
88
88
88
88
88
88
88
88
88
F8
ENDCHAR
STARTCHAR 00EE
ENCODING 238
SWIDTH 222 0
DWIDTH 8 0
BBX 11 35 -2 1
BITMAP
3FC0
4040
4640
8A20
F1E0
0000
0000
1F00
1100
1100
1100
1100
1100
1100
1100
1100
1100
1100
1100
1100
1100
1100
1100
1100
1100
1100
1100
1100
1100
1100
1100
1100
1100
1100
0F00
ENDCHAR
STARTCHAR 00EF
ENCODING 239
SWIDTH 194 0
DWIDTH 7 0
BBX 12 35 -3 0
BITMAP
7DF0
8510
8510
8510
7DF0
0000
0000
0F80
0880
0880
0880
0880
0880
0880
0880
0880
0880
0880
0880
0880
0880
0880
0880
0880
0880
0880
0880
0880
0880
0880
0880
0880
0880
0880
0F80
ENDCHAR
STARTCHAR 00F1
ENCODING 241
SWIDTH 1027 0
DWIDTH 37 0
BBX 34 36 1 1
BITMAP
000F0E0000
0010D20000
0010320000
0023040000
0024840000
001C780000
0000000000
0000000000
FE000007C0
8100000440
8080000440
8840000440
8C20000440
8A10000440
8908000440
8884000440
8842000440
8821000440
8810800440
8808400440
8804200440
8802100440
8801080440
8800840440
8800420440
8800210440
8800108440
8800084440
8800042440
8800021440
8800011440
8800008C40
8800004040
8800004040
8800002040
7800001FC0
ENDCHAR
STARTCHAR 00F2
ENCODING 242
SWIDTH 1055 0
DWIDTH 38 0
BBX 34 37 1 0
BITMAP
0003E00000
0002200000
0001100000
0000900000
0000480000
0000480000
0000380000
0000000000
01FFFFF800
0E00000700
3000000080
4000000080
43FFFFF840
4400000440
8800000240
8800000240
9000000240
9000000240
9000000240
9000000240
9000000240
9000000240
9000000240
9000000240
9000000240
9000000240
9000000240
9000000240
9000000240
8800000240
8800000440
8800000440
4600000840
41FFFFF080
2000000100
1800000200
07FFFFFC00
ENDCHAR
STARTCHAR 00F3
ENCODING 243
SWIDTH 1055 0
DWIDTH 38 0
BBX 34 37 1 0
BITMAP
0000F80000
0001100000
0001100000
0002200000
0002400000
0002400000
0003800000
0000000000
01FFFFF800
0E00000700
3000000080
4000000080
43FFFFF840
4400000440
8800000240
8800000240
9000000240
9000000240
9000000240
9000000240
9000000240
9000000240
9000000240
9000000240
9000000240
9000000240
9000000240
9000000240
9000000240
8800000240
8800000440
8800000440
4600000840
41FFFFF080
2000000100
1800000200
07FFFFFC00
ENDCHAR
STARTCHAR 00F4
ENCODING 244
SWIDTH 1055 0
DWIDTH 38 0
BBX 34 35 1 0
BITMAP
0003F80000
0004080000
0008440000
0009A40000
000F1E0000
0000000000
01FFFFF800
0E00000700
3000000080
4000000080
43FFFFF840
4400000440
8800000240
8800000240
9000000240
9000000240
9000000240
9000000240
9000000240
9000000240
9000000240
9000000240
9000000240
9000000240
9000000240
9000000240
9000000240
8800000240
8800000440
8800000440
4600000840
41FFFFF080
2000000100
1800000200
07FFFFFC00
ENDCHAR
STARTCHAR 00F5
ENCODING 245
SWIDTH 1055 0
DWIDTH 38 0
BBX 35 36 1 0
BITMAP
0007870000
0004650000
00081D0000
000B810000
000A620000
000E1C0000
0000000000
01FFFFF800
0E00000700
1000000080
2000000040
41FFFFF840
4600000440
4800000220
4800000220
8800000220
8800000220
8800000220
8800000220
8800000220
8800000220
8800000220
8800000220
8800000220
8800000220
8800000220
8800000220
8800000220
4800000220
4800000220
4400000440
4200000840
21FFFFF040
1000000080
0800000300
07FFFFFC00
ENDCHAR
STARTCHAR 00F6
ENCODING 246
SWIDTH 1055 0
DWIDTH 38 0
BBX 34 35 2 0
BITMAP
001F7C0000
0011440000
0011440000
0011440000
001F7C0000
0000000000
03FFFFF800
1C00000E00
2000000100
4000000080
43FFFFF080
8C00000880
8800000440
9000000440
9000000440
9000000440
9000000440
9000000440
9000000440
9000000440
9000000440
9000000440
9000000440
9000000440
9000000440
9000000440
9000000440
9000000440
8800000440
8800000880
8600001880
41FFFFE080
2000000100
1800000600
07FFFFF800
ENDCHAR
STARTCHAR 00F7
ENCODING 247
SWIDTH 722 0
DWIDTH 26 0
BBX 24 18 1 2
BITMAP
003C00
006600
004200
004200
006600
003C00
000000
FFFFFF
800001
800001
FFFFFF
000000
003C00
006600
004200
004200
006600
003C00
ENDCHAR
STARTCHAR 00F8
ENCODING 248
SWIDTH 1055 0
DWIDTH 38 0
BBX 36 36 1 -4
BITMAP
0000000040
00000000A0
0000000110
0000000220
07FFFFFC40
1800000080
2000000080
43FFFFF040
4400002640
4800004A20
8800009120
9000012120
9000024120
9000048120
9000090120
9000120120
9000240120
9000480120
9000900120
9001200120
9002400120
9004800120
9009000120
9013000120
8826000220
8844000220
4888000240
4510000440
2220007840
201FFF8080
1800000300
11E0007C00
221FFF8000
4400000000
2800000000
1000000000
ENDCHAR
STARTCHAR 00F9
ENCODING 249
SWIDTH 972 0
DWIDTH 35 0
BBX 32 37 1 0
BITMAP
0007E000
00022000
00012000
00011000
00009000
00005000
00003800
00000000
00000000
F800000F
88000009
88000009
88000009
88000009
88000009
88000009
88000009
88000009
88000009
88000009
88000009
88000009
88000009
88000009
88000009
88000009
88000009
88000009
88000009
88000009
88000009
88000011
84000011
43FFFFE2
20000002
1000000C
0FFFFFF0
ENDCHAR
STARTCHAR 00FA
ENCODING 250
SWIDTH 972 0
DWIDTH 35 0
BBX 32 37 1 0
BITMAP
0001F000
00022000
00022000
00024000
00048000
00048000
00070000
00000000
00000000
F800000F
88000009
88000009
88000009
88000009
88000009
88000009
88000009
88000009
88000009
88000009
88000009
88000009
88000009
88000009
88000009
88000009
88000009
88000009
88000009
88000009
88000009
88000011
84000011
43FFFFE2
20000002
1000000C
0FFFFFF0
ENDCHAR
STARTCHAR 00FB
ENCODING 251
SWIDTH 972 0
DWIDTH 35 0
BBX 32 35 1 1
BITMAP
000FF000
00088800
00118800
00134400
001E3C00
00000000
F000000F
90000011
90000011
90000011
90000011
90000011
90000011
90000011
90000011
90000011
90000011
90000011
90000011
90000011
90000011
90000011
90000011
90000011
90000011
90000011
90000011
90000011
90000011
88000011
84000011
43FFFFE2
20000004
10000018
0FFFFFE0
ENDCHAR
STARTCHAR 00FC
ENCODING 252
SWIDTH 972 0
DWIDTH 35 0
BBX 32 35 1 0
BITMAP
001F7C00
00218400
00218400
00218400
001F7C00
00000000
F000000F
90000011
90000011
90000011
90000011
90000011
90000011
90000011
90000011
90000011
90000011
90000011
90000011
90000011
90000011
90000011
90000011
90000011
90000011
90000011
90000011
90000011
90000011
88000011
84000011
43FFFFE2
20000004
10000018
0FFFFFE0
ENDCHAR
STARTCHAR 00FF
ENCODING 255
SWIDTH 1055 0
DWIDTH 38 0
BBX 36 35 1 0
BITMAP
000FDF0000
0008510000
0008510000
0008510000
000FDF0000
0000000000
0000000000
F8000003F0
8400000420
4300000840
2180001080
18C0002100
0420004200
0210008400
0108008800
0084011000
0042022000
0021044000
0018888000
0004510000
0002220000
0001040000
0000880000
0000500000
0000500000
0000500000
0000500000
0000500000
0000500000
0000500000
0000500000
0000500000
0000500000
0000500000
0000700000
ENDCHAR
STARTCHAR 0152
ENCODING 338
SWIDTH 1527 0
DWIDTH 55 0
BBX 51 28 1 0
BITMAP
03FFFFFFFFFFE0
1C000000000020
20000000000020
41FFFF8FFFFFE0
46000088000000
44000088000000
88000088000000
88000088000000
88000088000000
88000088000000
88000088000000
88000088000000
8800008FFFFFE0
88000080000020
88000080000020
8800008FFFFFE0
88000088000000
88000088000000
88000088000000
88000088000000
88000088000000
88000088000000
4C000088000000
46000088000000
41FFFF8FFFFFE0
20000000000020
18000000000020
07FFFFFFFFFFE0
ENDCHAR
STARTCHAR 0153
ENCODING 339
SWIDTH 1527 0
DWIDTH 55 0
BBX 52 28 1 0
BITMAP
03FFFFFFFFFFE0
0C000000000020
30000000000020
203FFF80000020
47C0009FFFFFC0
48000090000000
88000090000000
90000090000000
90000090000000
90000090000000
90000090000000
90000090000000
9000008FFFFFC0
90000080000040
90000080000040
9000009FFFFF80
90000090000000
90000090000000
90000090000000
88000090000000
88000090000000
88000090000000
48000090000000
46000090000000
21FFFF8FFFFFF0
10000000000010
0C000000000010
03FFFFFFFFFFF0
ENDCHAR
STARTCHAR 0178
ENCODING 376
SWIDTH 1055 0
DWIDTH 38 0
BBX 36 35 1 0
BITMAP
000FBF0000
0008A10000
0008A10000
0008A10000
000FBF0000
0000000000
0000000000
FC000003F0
8600000420
4300000840
3180001080
0880002100
0440004200
0220008C00
0110011000
0088022000
0044044000
0022088000
0011110000
0008A20000
0004440000
0002080000
0001100000
0000A00000
0000A00000
0000A00000
0000A00000
0000A00000
0000A00000
0000A00000
0000A00000
0000A00000
0000A00000
0000A00000
0000E00000
ENDCHAR
STARTCHAR 0192
ENCODING 402
SWIDTH 444 0
DWIDTH 16 0
BBX 18 38 -4 -6
BITMAP
000380
000640
000440
000E40
001580
001800
001800
002800
002800
002800
002800
07CF00
040100
07DF00
005000
009000
00A000
00A000
00A000
00A000
012000
014000
014000
014000
024000
024000
028000
028000
028000
028000
050000
050000
050000
3A0000
440000
840000
580000
200000
ENDCHAR
STARTCHAR 0394
ENCODING 916
SWIDTH 777 0
DWIDTH 28 0
BBX 24 29 2 1
BITMAP
000800
001800
001400
001400
002200
002200
004200
005100
00B100
00D080
014880
018880
028440
030440
030220
050220
060220
0A0110
0C0110
140088
180088
280088
300044
500044
600022
A00022
BFFFE2
800001
FFFFFF
ENDCHAR
STARTCHAR 03A9
ENCODING 937
SWIDTH 833 0
DWIDTH 30 0
BBX 26 25 1 0
BITMAP
007FC000
03807800
0C3F8C00
10C06200
21001100
42000880
42000C80
84000440
84000440
84000440
84000440
84000440
44000440
44000440
22000880
22000880
11001100
08802200
8460C440
83A13840
80614040
FFD17FC0
80110040
80110040
FFF1FFC0
ENDCHAR
STARTCHAR 03C0
ENCODING 960
SWIDTH 666 0
DWIDTH 24 0
BBX 22 21 1 -1
BITMAP
0FFFFC
100004
600004
5CFDFC
A48500
C50500
050900
050900
090900
090900
090900
090900
050900
06090C
0A090C
120894
2208F4
220808
240410
140220
0801C0
ENDCHAR
STARTCHAR 2013
ENCODING 8211
SWIDTH 583 0
DWIDTH 21 0
BBX 18 5 1 10
BITMAP
FFFFC0
800040
800040
800040
FFFFC0
ENDCHAR
STARTCHAR 2014
ENCODING 8212
SWIDTH 1055 0
DWIDTH 38 0
BBX 35 5 1 10
BITMAP
FFFFFFFFE0
8000000020
8000000020
8000000020
FFFFFFFFE0
ENDCHAR
STARTCHAR 2018
ENCODING 8216
SWIDTH 250 0
DWIDTH 9 0
BBX 6 12 1 17
BITMAP
1C
24
44
8C
90
90
9C
84
84
84
84
FC
ENDCHAR
STARTCHAR 2019
ENCODING 8217
SWIDTH 250 0
DWIDTH 9 0
BBX 6 11 1 16
BITMAP
FC
84
84
84
E4
24
24
C4
88
88
F0
ENDCHAR
STARTCHAR 201A
ENCODING 8218
SWIDTH 250 0
DWIDTH 9 0
BBX 6 11 1 -6
BITMAP
FC
84
84
84
84
E4
24
C4
84
88
F0
ENDCHAR
STARTCHAR 201C
ENCODING 8220
SWIDTH 444 0
DWIDTH 16 0
BBX 13 12 1 17
BITMAP
1C38
24C8
4488
8D18
9120
9120
9D38
8508
8508
8508
8508
FDF8
ENDCHAR
STARTCHAR 201D
ENCODING 8221
SWIDTH 444 0
DWIDTH 16 0
BBX 13 11 1 16
BITMAP
FDF8
8508
8508
8508
E5C8
2448
2448
C588
8910
8910
F1E0
ENDCHAR
STARTCHAR 201E
ENCODING 8222
SWIDTH 444 0
DWIDTH 16 0
BBX 13 11 1 -6
BITMAP
FDF8
8508
8508
8508
8508
E5C8
2448
C588
8508
8910
F1E0
ENDCHAR
STARTCHAR 2020
ENCODING 8224
SWIDTH 611 0
DWIDTH 22 0
BBX 20 35 1 -7
BITMAP
00E000
00A000
00A000
00A000
00A000
00A000
00A000
00A000
FFBFF0
800010
FFBFF0
00A000
00A000
00A000
00A000
00A000
00A000
00A000
00A000
00A000
00A000
00A000
00A000
00A000
00A000
00A000
00A000
00A000
00A000
00A000
00A000
00A000
00A000
00A000
00E000
ENDCHAR
STARTCHAR 2022
ENCODING 8226
SWIDTH 277 0
DWIDTH 10 0
BBX 8 8 1 9
BITMAP
3C
42
81
81
81
82
42
3C
ENDCHAR
STARTCHAR 2026
ENCODING 8230
SWIDTH 805 0
DWIDTH 29 0
BBX 27 6 0 0
BITMAP
7C1F83E0
84108220
84108220
84108220
84108220
7C1F83E0
ENDCHAR
STARTCHAR 2122
ENCODING 8482
SWIDTH 777 0
DWIDTH 28 0
BBX 23 14 2 14
BITMAP
FFD806
081806
08140A
08140A
08140A
081212
081212
081212
081122
081122
0811E2
0810C2
0810C2
080000
ENDCHAR
STARTCHAR 2202
ENCODING 8706
SWIDTH 555 0
DWIDTH 20 0
BBX 18 29 1 -1
BITMAP
0FE000
303800
23EC00
1C3600
000B00
000500
000580
000280
000280
000240
000240
000240
000240
03E240
0DFE40
320A40
240440
440440
480480
880480
880480
880900
880900
880A00
481200
441400
222800
19F000
07C000
ENDCHAR
STARTCHAR 220F
ENCODING 8719
SWIDTH 916 0
DWIDTH 33 0
BBX 31 32 1 -4
BITMAP
FFFFFFFE
30000010
18FFFE20
08800220
08800220
08800220
08800220
08800220
08800220
08800220
08800220
08800220
08800220
08800220
08800220
08800220
08800220
08800220
08800220
08800220
08800220
08800220
08800220
08800220
08800220
08800220
08800220
08800220
08800220
08800220
18C00630
FFF83FFE
ENDCHAR
STARTCHAR 2211
ENCODING 8721
SWIDTH 805 0
DWIDTH 29 0
BBX 25 32 1 -3
BITMAP
FFFFFE00
43FFFA00
22000E00
21000600
10800200
08400200
04200200
02200000
02100000
01080000
00840000
00420000
00220000
00210000
00108000
00088000
00050000
000A0000
00140000
00280000
00500000
00A00000
01400000
03800080
03800180
05000180
0A000280
17FFFC80
20000080
40000080
80000080
FFFFFF80
ENDCHAR
STARTCHAR 221A
ENCODING 8730
SWIDTH 583 0
DWIDTH 21 0
BBX 18 32 1 -3
BITMAP
0000C0
0000C0
0000C0
0000C0
000140
000180
000180
000180
000180
000180
000280
000300
000300
040300
1C0300
6A0300
BA0500
450600
050600
028600
028600
014600
014A00
00AA00
00AC00
005C00
004C00
002C00
002400
001400
001800
000800
ENDCHAR
STARTCHAR 221E
ENCODING 8734
SWIDTH 861 0
DWIDTH 31 0
BBX 28 12 1 4
BITMAP
0F801F00
304020C0
41B0CF60
DEC921A0
902640D0
A0108050
A0090050
A0108050
502640F0
7859A1A0
3FE07FC0
0F801F00
ENDCHAR
STARTCHAR 222B
ENCODING 8747
SWIDTH 361 0
DWIDTH 13 0
BBX 10 36 1 -5
BITMAP
0380
0640
0440
0F40
0EC0
0A00
0A00
0A00
0A00
0A00
0A00
0A00
0A00
0A00
0A00
0A00
0A00
0A00
0A00
0A00
0A00
0A00
0A00
0A00
0A00
0A00
0A00
0A00
0A00
0A00
0A00
0C00
EC00
9800
4800
3000
ENDCHAR
STARTCHAR 2248
ENCODING 8776
SWIDTH 722 0
DWIDTH 26 0
BBX 23 13 1 4
BITMAP
010000
1EE000
201E1E
4783E4
987C08
6003F0
000000
000000
1FE00E
201C12
4FE3E4
501C18
2003E0
ENDCHAR
STARTCHAR 2260
ENCODING 8800
SWIDTH 666 0
DWIDTH 24 0
BBX 21 22 1 -1
BITMAP
000100
000280
000480
000500
000900
000A00
FFF3F8
800008
FFE7F8
004800
005000
009000
00A000
FF3FF8
800008
FE7FF8
048000
050000
090000
0A0000
120000
0C0000
ENDCHAR
STARTCHAR 2264
ENCODING 8804
SWIDTH 527 0
DWIDTH 19 0
BBX 17 22 1 1
BITMAP
000080
000780
001880
006300
019C00
0E6000
318000
C60000
980000
CC0000
330000
0CC000
033000
00CE00
003180
000C80
000380
000000
000000
FFFF80
800080
FFFF80
ENDCHAR
STARTCHAR 2265
ENCODING 8805
SWIDTH 555 0
DWIDTH 20 0
BBX 18 23 1 0
BITMAP
800000
E00000
9C0000
630000
18C000
073800
00C600
003180
000C40
000440
001980
00E600
031800
0C6000
318000
C60000
980000
E00000
000000
000000
FFFFC0
800040
FFFFC0
ENDCHAR
STARTCHAR 25CA
ENCODING 9674
SWIDTH 555 0
DWIDTH 20 0
BBX 17 28 1 0
BITMAP
01C000
012000
022000
04D000
055000
092800
0A2800
121400
141400
280A00
280A00
500500
500500
A00280
A00280
500480
500500
280A00
280A00
141400
141400
0A2800
0A2800
055000
055000
02A000
022000
01C000
ENDCHAR
ENDFONT
